<svg id="Layer_1" data-name="Layer 1" xmlns="http://www.w3.org/2000/svg" viewBox="0 0 496.37 458.72"><defs><style>.cls-1{fill:#fff;}</style></defs><path d="M438,81,450,78.17c-5.21,5.65-10.38,10.68-14.86,16.25s-8.18,11.59-12.23,17.41l.63.6c.74-.55,1.5-1.08,2.23-1.64,9.1-7.05,19.17-11.79,30.79-12.8,8.82-.77,17,1.33,25,5,12.15,5.66,21.36,14.67,29,25.55-11.78-7.26-24.47-11.34-38.72-11.19L483,127c-.34.4-.68.81-1,1.21-8.92-3.74-18-7-28.27-7.35l8.1,9.53a46.24,46.24,0,0,0-17.5-1.67c-5.72.66-11.38,1.84-17.07,2.79l.12,1c3.22.17,6.48.07,9.65.54,28.5,4.24,47.64,20.06,57.62,47,3.89,10.51,5.83,21.47,6.81,32.63-6.29-16.94-15.27-32.08-29-44.32,1,7.36,2,14.47,2.93,21.55-3.24-5.43-6.29-11-9.76-16.24a55.43,55.43,0,0,0-13.5-14.35l1.94,14.06c-5.24-7-11.29-13-19.16-17C446,173.19,454.48,191,454.81,211.61A163.28,163.28,0,0,1,453,234.69a183.52,183.52,0,0,0-10.53-37.63l-3.9,15.75c-4.19-19.14-9.64-37.57-21.25-53.52l-.82.26c.8,4,1.64,8.06,2.4,12.11a312.07,312.07,0,0,1,5.47,73.7c-1.5,30-6.5,59.37-17.73,87.37-6.37,15.89-13.87,31.28-23.48,45.53-.66,1-1.25,2-2,3.28,26.74,3.7,53,8.17,77.1,20.72-33.37-6.27-67.09-6.08-101.5-5.71l32.13,29.12-.24.65h-6.25c-18.79,0-37.58,0-56.37.09-2,0-2.84-.68-3.65-2.45-3.9-8.46-8-16.83-12-25.23l-.65.3,12.91,27.26H263.59v43.15l-68.27-26.55,7.2-16.37H137.79l-.48-.78,33.1-29.21c-34.88-.14-69.26-.35-103.29,6.27,24.09-12.71,50.38-17.43,77-21.27C100,312.75,91.47,238.35,108.29,159.86l-.68-.43c-2,2.8-4.25,5.46-6,8.42-7.77,13.2-11.85,27.61-13.72,42.72a1.55,1.55,0,0,1-.71,1.24q-2-7.5-4-15l-.77-.2c-2,6-4.26,12-5.85,18.16s-2.5,12.55-3.72,18.89c-5.91-28.61.73-54.32,18-77.77-4.71,1.4-10.25,6.42-19.55,17.65.31-2.57.55-4.72.82-6.87s.58-4.38,1-7.19a52.67,52.67,0,0,0-13.63,14c-3.5,5.37-6.52,11.06-9.88,16.83,1-7,2-14,3.09-21.25-13.43,12.13-23,26.5-28.32,44.08.88-32,13.3-62.41,47.44-76.39a60.43,60.43,0,0,1,12-3.27c4-.74,8.21-.86,13-1.32-11-4-21.6-4.63-32.43-1.66l-.42-.61,7.9-8.91c-10.5.26-19.8,2.93-29.13,7l10.5-11.2c-14.38.59-27.29,4.5-39.08,12.61,1-1.4,2-2.84,3-4.21C25,115,34.45,106.65,46.45,101.71c15.48-6.37,30.41-4.15,44.73,3.91,1.53.86,3,1.8,4.48,2.77s2.86,2,4.94,3.5c-6.51-13.44-16.72-23-26.26-33.54l11.72,2.79.53-.69c-3.45-3.24-6.75-6.65-10.38-9.68s-7.63-5.71-11.38-8.47c15.61-.64,43.63,11.93,55.83,47.36.3-1.46.48-2.35.67-3.24,3-14.3,8.82-27.1,20.63-36.37,12.17-9.55,25.81-12.84,41-8.92a24.35,24.35,0,0,1,2.57,1.06c-10.15,3-19.34,6.53-27.21,13.78l12.84-1.3.3.67c-8.47,5.21-16.85,10.51-23.17,18.57l11.37-2.14.32.78c-8.49,6-15,13.81-20.24,22.75,15.47-11.65,32.4-19.28,52.12-18.12,19.53,1.14,35.74,10.11,50.08,22.93-14.81-5.18-29.93-8.35-45.77-8,6.87,4.38,13.36,9.14,18.8,16.29-11.63-6.2-23.2-10.3-36.17-10.63l13.88,13.44-.61,1c-16.64-8.65-32.57-5.74-48.18,2.84,1.38-.09,2.76-.14,4.13-.28,23.68-2.45,41.47,10.17,51,28.67,7.22,14,9.39,29.09,8.13,44.7-.34,4.23-.88,8.43-1.63,12.69a102.19,102.19,0,0,0-18.15-44.06c-1,7-2,13.81-2.94,20.63-4.07-13-7.62-26.08-17-36.7.4,2.73.79,5.46,1.21,8.19s.92,5.64,1.5,9.17c-7.21-8.38-13.23-17.19-23.28-21.31l5.57,20.14-.92.46c-4.45-7.78-10.73-13.71-18.91-19,8.54,23.67,15.79,46.87,14.66,72.37-1.12-2.58-1.89-4.69-2.93-6.67-4.86-9.24-9.85-18.41-14.69-27.67C125,187.6,121,178.6,119.42,168.69l-.72-.07c-.61,3.81-1.44,7.61-1.8,11.46-1.39,14.63-.27,29.17,1.54,43.71,2.88,23.22,8.1,45.88,16.79,67.61,9.64,24.09,21.66,46.85,39.88,65.76,4,4.19,8.38,8.06,12.72,12.21l5.53-4.44c-7.21-4.79-9.44-11.46-6.92-19.34a22.91,22.91,0,0,1,5.28-8.28c4.18-4.42,8.83-8.4,13.19-12.47-1.31-1.7-2.84-3.1-3.63-4.85-1.64-3.62-.09-5.95,3.71-6.72a5.67,5.67,0,0,0,3.18-2.17,61.91,61.91,0,0,0,9.68-24.59c2.89-16.37,5.1-32.86,7.3-49.33,1-7.31,1.24-14.71,1.8-21.67a30.32,30.32,0,0,1-5.72-1.17c-.8-.33-1.42-1.71-1.63-2.72-.89-4.19.84-6.14,6.87-7.75-1.22-7.28-2.49-14.49-8.11-20.06a7.13,7.13,0,0,1-2-3.2c-2.33-10.65-4.46-21.35-6.81-32-.57-2.57.21-3.42,2.66-3.18a1.34,1.34,0,0,0,.28,0c7.21-.51,7.21-.51,9.23,6.35.75,2.56,1.46,5.15,2.28,7.7,1,3.24,3.84,4.68,7.5,4s4.88-2.3,4.58-6.06c-.27-3.31-.84-6.6-1.26-9.9-.14-1.08-.24-2.18-.41-3.87,3.07,0,5.9,0,8.73,0,3.23-.07,6.46-.26,9.69-.36a3.68,3.68,0,0,0,3.88-3.24c.12-.89-.84-2.16-1.63-2.92-4.63-4.37-5.3-11.15-1.43-15.75,3.66-4.37,10.93-5.08,15.6-1.52a11.09,11.09,0,0,1,2.26,15.14,11.59,11.59,0,0,1-1.89,2,3.47,3.47,0,0,0,1.21,6.1,13.93,13.93,0,0,0,4.08.59c4.81.09,9.63.08,14.44.12a5.19,5.19,0,0,1,.91.34c-.47,3.33-1,6.75-1.45,10.18-.08.54-.22,1.09-.29,1.64-.77,6.05,2.78,9,8.73,7.35,2.28-.63,3.19-2.4,3.76-4.41,1.13-4,2.27-8,3.24-12,.37-1.57,1-2.16,2.63-2,2.83.32,5.67.51,8.91.79-.64,3-1.23,5.63-1.79,8.32-1.7,8.14-3.26,16.31-5.15,24.4a13.2,13.2,0,0,1-3.07,5.92c-5.29,5.55-6,12.67-7.68,19.81,1.26.33,2.31.59,3.35.88,3.23.9,5.1,3.69,4.47,6.64-.68,3.18-2.71,4.4-6.48,3.89-.44-.05-.88-.07-1.65-.13.45,5.76.69,11.39,1.35,17,1.69,14,3.37,28.08,5.42,42.06,1.53,10.45,4,20.69,8.59,30.31.83,1.75,1.89,3.39,2.82,5.09,1.14,2.09,2.45,3.53,5.23,3.79,3.53.34,4.52,5.31,1.86,8.38a38.67,38.67,0,0,1-2.85,2.66c2.18,2.07,4.32,4,6.38,6.08,3,2.92,5.92,5.85,8.78,8.87,5.54,5.83,7,19.19-2.61,25.4l4.66,3.92A85.1,85.1,0,0,0,354.64,353c20.87-25.29,34.89-54.09,43.73-85.55a285.89,285.89,0,0,0,10.34-69.76,119.11,119.11,0,0,0-2.59-28.11,8.51,8.51,0,0,0-.72-1.49c-1.93,11.56-6.31,21.76-11.68,31.6s-11.4,19.4-15,30.8c-2-25.4,5.86-48.33,13.26-71.79-7.54,5.1-13.73,10.75-17.9,18.42l-.85-.4,4.67-20c-9.88,3.91-16,12.44-22.74,21.41,1-6.3,1.85-11.75,2.83-18-5.59,5.38-8.26,11.59-10.69,17.81s-4.21,12.68-6.41,19.42c-.94-7.09-1.84-13.87-2.71-20.48-6.72,6.42-15.46,25.09-18.63,44.42-.45-2.74-1-5.47-1.32-8.22-2.63-20.56,1.09-39.88,12.49-57.26,10.53-16.07,26-22.7,45-21.35,1.72.12,3.42.52,5.15.52-16-8.57-32.33-10.92-49.65-2.86l13.92-14.32c-13,.58-24.78,4.34-36.13,10.46,1.87-1.91,3.66-3.89,5.61-5.71s4.14-3.69,6.35-5.36,4.56-3.13,7.46-5.1c-16.28-.23-31.43,2.16-46.42,8.65,26.71-24.34,63.15-35.52,102.87-5.64a106.68,106.68,0,0,0-20.38-23.29l11.52,2c-6.62-8-14.6-13.55-23.42-18.07l.14-.73,13.89,1c-8.44-7.09-17.88-11.07-28.19-14.16a66.71,66.71,0,0,1,7.3-1.74c19.67-2.46,35,5,46.69,20.65,5.68,7.65,8.68,16.45,10.54,25.69.19.91.39,1.8.69,3.24,4.6-12.9,11.3-23.9,21.32-32.64s21.51-14.25,35.44-15.32c-2.95,2-5.62,3.82-8.19,5.73s-5.17,3.9-7.57,6.06-4.65,4.67-7,7ZM276.4,251.5c.89-1.35,1.68-2.47,2.38-3.64.32-.53.83-1.44.64-1.69-2.32-3-.32-5.71.47-8.36,1.85-6.2,4-12.31,6.08-18.42.86-2.48.47-4.55-1.9-5.64a106.05,106.05,0,0,0-11.23-4.44c-3.54-1.14-5-4.2-2.95-7.21a9.28,9.28,0,0,0-6.25-14.48,8.47,8.47,0,0,0-8.84,4.45,8.79,8.79,0,0,0,.9,10.14c1.23,1.55,1.4,2.89.15,4.14a14.34,14.34,0,0,1-4.07,2.88c-3.42,1.57-7.12,2.58-10.37,4.41-3.44,1.94-3.5,3.2-2.28,7,2.34,7.2,4.6,14.43,6.83,21.66.29.94.63,2.37.17,2.93-1.55,1.89-.52,3,.79,4.19,1.75,1.55,1.11,2.44-.72,3.11-.52.18-1,.35-1.55.58-2.21,1.06-3.64,2.78-3.14,5.27s2.5,3.75,5.11,3.8c1.07,0,2.15,0,3.4,0,.06,1.19.19,2.19.14,3.18-.33,7.48-.45,15-1.1,22.44a161,161,0,0,1-9.37,40.94,3.32,3.32,0,0,1-1.9,1.93c-2.57.54-3.34,2.3-2.57,4.3,1.08,2.81-.44,3.66-2.39,4.88a57.28,57.28,0,0,0-7.77,5.74,13.81,13.81,0,0,0-5,9.31c-.28,3.51-.21,6.84,4.12,8.74-5.86,1.5-5.85,1.57-5.73,6.68,0,2.06.89,2.85,2.86,2.74,1.3-.06,2.59,0,3.89,0q38.86.08,77.74.19c1.74,0,3-.35,3.19-2.2a14.45,14.45,0,0,0-.07-4.69c-.2-.81-1.31-1.58-2.19-2a8.24,8.24,0,0,0-2.75-.22c4.79-5.87,5.41-10.07,1.8-14.92s-8.45-8.45-14.6-9.33c-7-1-14.11-1.49-21-2.19a18.47,18.47,0,0,1,1.93-.28c4.25-.13,8.51-.18,12.76-.37a25.69,25.69,0,0,0,6-.72,3.44,3.44,0,0,0,2.12-2.45c0-1-1.09-2.7-1.92-2.84-2.08-.35-2.55-1.69-3.11-3.25a172.15,172.15,0,0,1-10-64,11.41,11.41,0,0,1,.32-1.78c5.16.27,7.5-.83,8-3.67C284,255.22,282.07,253.25,276.4,251.5ZM261.75,396.6c-14.63,0-28.93,0-43.24.08a3.36,3.36,0,0,0-2.26,1.82c-3.75,7.92-7.37,15.91-11,23.88-.44,1-.77,2-1.12,2.85h57.64Zm1.52-.7H308.4c-2.81-4.4-5.71-8.77-8.42-13.26a3.34,3.34,0,0,0-3.34-1.77c-10.35.05-20.7,0-31,0-.72,0-1.43.11-2.33.18Zm-90-.16c.17.22.23.36.28.36,14,0,27.92,0,41.88-.12a3,3,0,0,0,2.16-1.21c2.59-4.56,5-9.19,7.59-13.9a4,4,0,0,0-.92-.28q-16.78.09-33.59.23a2.81,2.81,0,0,0-1.79.49C183.65,386.09,178.47,390.93,173.28,395.74Zm128.54-15.13-.36.87c2.76,4.23,5.58,8.43,8.24,12.72a3.39,3.39,0,0,0,3.4,1.69c12.3,0,24.59,0,36.88,0,1,0,1.92-.09,3.4-.16-3.78-3.56-7.42-6.47-10.4-9.94-3.76-4.37-7.94-5.78-13.76-5.35C320.13,381.11,311,380.61,301.82,380.61Z" transform="translate(-14.15 -10.72)"/><path d="M298.92,88c-24.76-8.41-49.24-6.64-73.72-.48C222.14,82.46,219,77.14,215.73,72c-2.49-3.9-5.42-7.5-7.84-11.43-6.85-11.11-1.95-24.26,10.22-27.47a25.3,25.3,0,0,1,15.79,1.13c8.59,3.29,14.18,9.78,18.45,17.61a21.87,21.87,0,0,0,2.8,4.45c.54-3.73,1.2-7.45,1.52-11.21.07-.86-.87-1.94-1.58-2.7-1.07-1.14-2.74-1.88-3.41-3.18-.77-1.5-1.43-3.7-.86-5.06S253.51,32,255,31.16a7.64,7.64,0,0,1,2.47-.25c-.44-2.57-1-5.05-1.26-7.56a7.19,7.19,0,0,1,.41-3.82c1.46-2.86,3.25-5.55,5.2-8.81,2.24,3.77,4.28,7.11,6.19,10.52.28.51,0,1.41-.18,2.08a36.52,36.52,0,0,0-1.2,3.67c-.36,2.17-.35,4.11,2.61,4.77,2.06.46,4,1.66,4.28,4.19a5.44,5.44,0,0,1-3.29,5.62c-2.89,1.48-3.28,3.67-2.76,6.47s.9,5.58,1.39,8.62c2.75-4.2,5-8.23,7.84-11.85,7.2-9.27,16.42-14.38,28.49-12,12.68,2.55,18.2,16.51,11,27.32-4.4,6.62-8.88,13.18-13.16,19.88C301.39,82.66,300.17,85.57,298.92,88Zm11.23-28.16c1.18-2.39,2.52-4.32,3.15-6.47,2.32-7.85-3.18-15-11.39-15.21a17.91,17.91,0,0,0-11.22,3.32C281.6,48.05,277,57.48,274.26,68c-.41,1.57.27,2.6,1.93,3.12,3,1,5.77,0,7.12-3s2.34-5.77,3.71-9.2c1.88,2.84,3.45,5.31,5.13,7.69,1.52,2.15,2.62,5.14,5.73,5.11,3.36,0,3.58-3.52,5-5.66.08-.12,0-.35,0-.62l-4.35-3.16c1.84-2.92,3.53-5.58,5.2-8.21Zm-72.9-1.1c.7,1.92,1,2.86,1.38,3.78,1,2.4,1.78,4.86,2.93,7.15.93,1.86,4.13,2.5,6.44,1.62s1.45-2.73,1-4c-1.85-5.18-3.45-10.55-6.11-15.31-3.74-6.7-9.32-11.7-17.12-13.5-5.75-1.32-11.4,1.07-13.87,5.66a13.45,13.45,0,0,0,2.33,15.11l6.1-5.21c1.64,2.66,3.49,5.11,4.57,7.87.21.55-2.51,2.25-3.86,3.43-.12.11-.14.33-.27.65,1,1.54,2.14,3.11,3.08,4.79,1.08,1.93,2.52,1.89,3.83.61a39.63,39.63,0,0,0,4-4.9C233.43,64.17,235.08,61.78,237.25,58.74Z" transform="translate(-14.15 -10.72)"/><path d="M259.77,98.64c-7.11-.38-17.08-.86-27-1.46A9,9,0,0,1,228.78,96c-1-.6-2.27-1.8-2.28-2.75s1.32-2.28,2.33-2.59c4.31-1.32,8.67-2.88,13.11-3.33,14.36-1.45,28.79-2.37,43.12.34A61.85,61.85,0,0,1,295.29,91a3.29,3.29,0,0,1,1.9,2.32,3.28,3.28,0,0,1-1.85,2.41,29.9,29.9,0,0,1-7.74,1.84C279.3,98.05,271,98.23,259.77,98.64Z" transform="translate(-14.15 -10.72)"/><path class="cls-1" d="M276.4,251.5c5.67,1.75,7.64,3.72,7.07,6.78-.52,2.84-2.86,3.94-8,3.67a11.41,11.41,0,0,0-.32,1.78,172.15,172.15,0,0,0,10,64c.56,1.56,1,2.9,3.11,3.25.83.14,1.9,1.83,1.92,2.84a3.44,3.44,0,0,1-2.12,2.45,25.69,25.69,0,0,1-6,.72c-4.25.19-8.51.24-12.76.37a18.47,18.47,0,0,0-1.93.28c6.92.7,14,1.19,21,2.19,6.15.88,10.95,4.43,14.6,9.33s3,9-1.8,14.92a8.24,8.24,0,0,1,2.75.22c.88.42,2,1.19,2.19,2a14.45,14.45,0,0,1,.07,4.69c-.19,1.85-1.45,2.2-3.19,2.2q-38.87-.15-77.74-.19c-1.3,0-2.59-.05-3.89,0-2,.11-2.82-.68-2.86-2.74-.12-5.11-.13-5.18,5.73-6.68-4.33-1.9-4.4-5.23-4.12-8.74a13.81,13.81,0,0,1,5-9.31,57.28,57.28,0,0,1,7.77-5.74c1.95-1.22,3.47-2.07,2.39-4.88-.77-2,0-3.76,2.57-4.3a3.32,3.32,0,0,0,1.9-1.93,161,161,0,0,0,9.37-40.94c.65-7.46.77-15,1.1-22.44.05-1-.08-2-.14-3.18-1.25,0-2.33,0-3.4,0-2.61-.05-4.58-1.2-5.11-3.8s.93-4.21,3.14-5.27c.5-.23,1-.4,1.55-.58,1.83-.67,2.47-1.56.72-3.11-1.31-1.15-2.34-2.3-.79-4.19.46-.56.12-2-.17-2.93-2.23-7.23-4.49-14.46-6.83-21.66-1.22-3.75-1.16-5,2.28-7,3.25-1.83,7-2.84,10.37-4.41a14.34,14.34,0,0,0,4.07-2.88c1.25-1.25,1.08-2.59-.15-4.14a8.79,8.79,0,0,1-.9-10.14,8.47,8.47,0,0,1,8.84-4.45,9.28,9.28,0,0,1,6.25,14.48c-2,3-.59,6.07,2.95,7.21a106.05,106.05,0,0,1,11.23,4.44c2.37,1.09,2.76,3.16,1.9,5.64-2.11,6.11-4.23,12.22-6.08,18.42-.79,2.65-2.79,5.4-.47,8.36.19.25-.32,1.16-.64,1.69C278.08,249,277.29,250.15,276.4,251.5Z" transform="translate(-14.15 -10.72)"/><path class="cls-1" d="M261.75,396.6v28.63H204.11c.35-.89.68-1.89,1.12-2.85,3.65-8,7.27-16,11-23.88a3.36,3.36,0,0,1,2.26-1.82C232.82,396.57,247.12,396.6,261.75,396.6Z" transform="translate(-14.15 -10.72)"/><path class="cls-1" d="M263.27,395.9V381.09c.9-.07,1.61-.17,2.33-.18,10.34,0,20.69,0,31,0a3.34,3.34,0,0,1,3.34,1.77c2.71,4.49,5.61,8.86,8.42,13.26Z" transform="translate(-14.15 -10.72)"/><path class="cls-1" d="M173.28,395.74c5.19-4.81,10.37-9.65,15.61-14.43a2.81,2.81,0,0,1,1.79-.49q16.8-.17,33.59-.23a4,4,0,0,1,.92.28c-2.55,4.71-5,9.34-7.59,13.9a3,3,0,0,1-2.16,1.21c-14,.1-27.92.1-41.88.12C173.51,396.1,173.45,396,173.28,395.74Z" transform="translate(-14.15 -10.72)"/><path class="cls-1" d="M301.82,380.61c9.14,0,18.31.5,27.4-.17,5.82-.43,10,1,13.76,5.35,3,3.47,6.62,6.38,10.4,9.94-1.48.07-2.44.16-3.4.16-12.29,0-24.58,0-36.88,0a3.39,3.39,0,0,1-3.4-1.69c-2.66-4.29-5.48-8.49-8.24-12.72Z" transform="translate(-14.15 -10.72)"/><path class="cls-1" d="M310.15,59.84,303.69,54c-1.67,2.63-3.36,5.29-5.2,8.21l4.35,3.16c0,.27.11.5,0,.62-1.41,2.14-1.63,5.62-5,5.66-3.11,0-4.21-3-5.73-5.11-1.68-2.38-3.25-4.85-5.13-7.69-1.37,3.43-2.42,6.37-3.71,9.2s-4.09,4-7.12,3c-1.66-.52-2.34-1.55-1.93-3.12,2.76-10.51,7.34-19.94,16.43-26.51a17.91,17.91,0,0,1,11.22-3.32c8.21.2,13.71,7.36,11.39,15.21C312.67,55.52,311.33,57.45,310.15,59.84Z" transform="translate(-14.15 -10.72)"/><path class="cls-1" d="M237.25,58.74c-2.17,3-3.82,5.43-5.57,7.76a39.63,39.63,0,0,1-4,4.9c-1.31,1.28-2.75,1.32-3.83-.61-.94-1.68-2.08-3.25-3.08-4.79.13-.32.15-.54.27-.65,1.35-1.18,4.07-2.88,3.86-3.43-1.08-2.76-2.93-5.21-4.57-7.87l-6.1,5.21a13.45,13.45,0,0,1-2.33-15.11c2.47-4.59,8.12-7,13.87-5.66,7.8,1.8,13.38,6.8,17.12,13.5,2.66,4.76,4.26,10.13,6.11,15.31.46,1.26,1.28,3.14-1,4s-5.51.24-6.44-1.62c-1.15-2.29-2-4.75-2.93-7.15C238.26,61.6,238,60.66,237.25,58.74Z" transform="translate(-14.15 -10.72)"/></svg>